<?xml version="1.0" encoding="iso-8859-1"?>
<!-- Generator: Adobe Illustrator 19.0.0, SVG Export Plug-In . SVG Version: 6.00 Build 0)  -->
<svg version="1.1" id="Layer_1" xmlns="http://www.w3.org/2000/svg" xmlns:xlink="http://www.w3.org/1999/xlink" x="0px" y="0px"
	 viewBox="0 0 512 512" style="enable-background:new 0 0 512 512;" xml:space="preserve">
<circle style="fill:#C1D354;" cx="256" cy="256" r="256"/>
<path style="fill:#9DB138;" d="M334.843,132.132c-20.516-19.566-48.269-31.562-78.851-31.562
	c-63.117,0-114.281,51.164-114.281,114.289c0,26.217,9.58,49.846,23.695,69.663c76.431,107.09,88.392,123.804,90.258,126.431
	c0,0.036,0.038,0.069,0.074,0.113l0.292,0.294h0.036l85.834,85.829c84.306-30.029,148.198-102.981,165.43-192.568L334.843,132.132z"
	/>
<path style="fill:#0575A5;" d="M255.992,100.57c-63.117,0-114.281,51.172-114.281,114.281c0,26.237,9.567,49.866,23.711,69.678
	c90.57,126.899,90.57,126.899,90.57,126.899s0,0,90.606-126.95c14.144-19.789,23.69-43.405,23.69-69.627
	C370.289,151.739,319.119,100.57,255.992,100.57z"/>
<g>
	<path style="fill:#FFFFFF;" d="M255.992,124.716c-49.787,0-90.148,40.361-90.148,90.163c0,49.789,40.364,90.15,90.148,90.15
		c49.802,0,90.163-40.361,90.163-90.15C346.155,165.076,305.795,124.716,255.992,124.716z"/>
	<polygon style="fill:#FFFFFF;" points="289.523,181.356 255.992,207.693 255.992,214.879 263.176,214.879 	"/>
</g>
<g>
	<polygon style="fill:#34495E;" points="289.523,181.356 255.992,214.879 263.176,214.879 	"/>
	<path style="fill:#34495E;" d="M287.831,183.048l-24.786,31.534h-6.761v-6.764L287.831,183.048L287.831,183.048z M289.523,181.356
		l-33.531,26.337v7.186h7.183L289.523,181.356L289.523,181.356z"/>
</g>
<polygon style="fill:#FFFFFF;" points="222.479,248.392 255.992,222.054 255.992,214.879 248.822,214.879 "/>
<g>
	<polygon style="fill:#34495E;" points="222.479,248.392 255.992,214.879 248.822,214.879 	"/>
	<path style="fill:#34495E;" d="M224.166,246.7l24.788-31.539h6.756v6.743L224.166,246.7L224.166,246.7z M222.479,248.392
		l33.513-26.337v-7.178h-7.171L222.479,248.392L222.479,248.392z"/>
</g>
<polygon style="fill:#FFFFFF;" points="289.523,248.392 263.176,214.879 255.992,214.879 255.992,222.054 "/>
<g>
	<polygon style="fill:#34495E;" points="289.523,248.392 255.992,214.879 255.992,222.054 	"/>
	<path style="fill:#34495E;" d="M287.831,246.7l-31.544-24.799v-6.743h6.761L287.831,246.7L287.831,246.7z M289.523,248.392
		l-26.348-33.516h-7.183v7.178L289.523,248.392L289.523,248.392z"/>
</g>
<polygon style="fill:#FFFFFF;" points="222.479,181.356 248.822,214.879 255.992,214.879 255.992,207.68 "/>
<g>
	<polygon style="fill:#34495E;" points="222.479,181.356 255.992,214.879 255.992,207.68 	"/>
	<path style="fill:#34495E;" d="M224.174,183.035l31.537,24.783v6.764h-6.756L224.174,183.035L224.174,183.035z M222.479,181.356
		l26.345,33.521h7.171v-7.199L222.479,181.356L222.479,181.356z"/>
</g>
<polygon style="fill:#FFFFFF;" points="255.992,152.801 249.357,208.225 255.992,214.879 262.659,208.225 "/>
<g>
	<polygon style="fill:#34495E;" points="255.992,152.801 255.992,214.879 262.659,208.225 	"/>
	<path style="fill:#34495E;" d="M255.992,155.924l6.272,52.16l-6.272,6.257l-6.249-6.257L255.992,155.924L255.992,155.924z
		 M255.992,152.801l-6.636,55.427l6.636,6.651l6.666-6.651L255.992,152.801L255.992,152.801z"/>
</g>
<polygon style="fill:#FFFFFF;" points="255.992,276.943 262.659,221.522 255.992,214.879 249.357,221.522 "/>
<g>
	<polygon style="fill:#34495E;" points="255.992,276.943 255.992,214.879 249.357,221.522 	"/>
	<path style="fill:#34495E;" d="M255.992,273.81l-6.249-52.155l6.249-6.264l6.272,6.257L255.992,273.81L255.992,273.81z
		 M255.992,276.943l6.666-55.421l-6.666-6.643l-6.636,6.643L255.992,276.943L255.992,276.943z"/>
</g>
<polygon style="fill:#FFFFFF;" points="318.067,214.879 262.659,208.225 255.992,214.879 262.659,221.522 "/>
<g>
	<polygon style="fill:#34495E;" points="318.067,214.879 255.992,214.879 262.659,221.522 	"/>
	<path style="fill:#34495E;" d="M314.944,214.879l-52.165,6.252l-6.259-6.252l6.259-6.257L314.944,214.879L314.944,214.879z
		 M318.067,214.879l-55.411-6.651l-6.666,6.651l6.666,6.643L318.067,214.879L318.067,214.879z"/>
</g>
<polygon style="fill:#FFFFFF;" points="193.923,214.879 249.357,221.522 255.992,214.879 249.357,208.225 "/>
<g>
	<polygon style="fill:#34495E;" points="193.923,214.879 255.992,214.879 249.357,208.225 	"/>
	<path style="fill:#34495E;" d="M197.056,214.879l52.155-6.257l6.257,6.257l-6.257,6.252L197.056,214.879L197.056,214.879z
		 M193.923,214.879l55.434,6.643l6.636-6.643l-6.636-6.651L193.923,214.879L193.923,214.879z"/>
	<path style="fill:#34495E;" d="M255.992,181.356c-18.506,0-33.513,15.009-33.513,33.521c0,18.506,15.009,33.516,33.513,33.516
		c18.516,0,33.531-15.009,33.531-33.516C289.523,196.365,274.509,181.356,255.992,181.356L255.992,181.356z"/>
</g>
<path style="fill:#FFFFFF;" d="M255.992,183.703c17.193,0,31.176,13.975,31.176,31.176c0,17.178-13.983,31.16-31.176,31.16
	c-17.178,0-31.158-13.983-31.158-31.16C224.835,197.678,238.815,183.703,255.992,183.703L255.992,183.703z"/>
<g>
	<rect x="255.155" y="127.004" style="fill:#34495E;" width="1.684" height="5.437"/>
	
		<rect x="234.007" y="129.686" transform="matrix(0.9681 -0.2504 0.2504 0.9681 -25.6732 63.0268)" style="fill:#34495E;" width="1.682" height="5.437"/>
	
		<rect x="214.138" y="137.532" transform="matrix(0.8761 -0.4821 0.4821 0.8761 -40.9837 121.0165)" style="fill:#34495E;" width="1.674" height="5.44"/>
	
		<rect x="196.868" y="150.098" transform="matrix(0.7275 -0.6861 0.6861 0.7275 -50.9698 177.2924)" style="fill:#34495E;" width="1.69" height="5.43"/>
	<polygon style="fill:#34495E;" points="185.943,171.412 186.857,169.999 182.264,167.086 181.366,168.504 	"/>
	
		<rect x="174.204" y="185.847" transform="matrix(0.3113 -0.9503 0.9503 0.3113 -58.6417 296.2089)" style="fill:#34495E;" width="1.679" height="5.432"/>
	
		<rect x="170.185" y="206.814" transform="matrix(0.0647 -0.9979 0.9979 0.0647 -49.1351 366.6447)" style="fill:#34495E;" width="1.682" height="5.44"/>
	<polygon style="fill:#34495E;" points="175.186,231.158 174.876,229.494 169.546,230.505 169.848,232.169 	"/>
	
		<rect x="178.111" y="248.434" transform="matrix(-0.4255 -0.905 0.905 -0.4255 27.8164 519.9629)" style="fill:#34495E;" width="1.692" height="5.435"/>
	<polygon style="fill:#34495E;" points="193.027,268.088 191.956,266.772 187.771,270.236 188.841,271.542 	"/>
	<polygon style="fill:#34495E;" points="208.236,282.079 206.874,281.065 203.679,285.463 205.048,286.464 	"/>
	<polygon style="fill:#34495E;" points="226.452,291.84 224.878,291.2 222.866,296.259 224.448,296.883 	"/>
	
		<rect x="244.471" y="296.61" transform="matrix(-0.9914 -0.1305 0.1305 -0.9914 449.464 628.1062)" style="fill:#34495E;" width="1.684" height="5.432"/>
	
		<rect x="265.813" y="296.621" transform="matrix(-0.9921 0.1251 -0.1251 -0.9921 568.6769 562.9633)" style="fill:#34495E;" width="1.697" height="5.435"/>
	<polygon style="fill:#34495E;" points="287.148,291.2 285.571,291.84 287.555,296.876 289.134,296.259 	"/>
	<polygon style="fill:#34495E;" points="305.155,281.065 303.772,282.056 306.967,286.459 308.337,285.455 	"/>
	<polygon style="fill:#34495E;" points="320.056,266.76 318.973,268.081 323.162,271.526 324.237,270.223 	"/>
	<polygon style="fill:#34495E;" points="330.964,249.206 330.227,250.737 335.142,253.041 335.867,251.51 	"/>
	<polygon style="fill:#34495E;" points="337.137,229.478 336.822,231.158 342.144,232.169 342.474,230.497 	"/>
	
		<rect x="340.14" y="206.793" transform="matrix(0.0573 0.9984 -0.9984 0.0573 530.6219 -142.9223)" style="fill:#34495E;" width="1.702" height="5.44"/>
	
		<rect x="336.12" y="185.824" transform="matrix(0.3063 0.9519 -0.9519 0.3063 413.2343 -189.9794)" style="fill:#34495E;" width="1.697" height="5.442"/>
	
		<rect x="327.041" y="166.57" transform="matrix(0.5361 0.8441 -0.8441 0.5361 294.9968 -198.2538)" style="fill:#34495E;" width="1.687" height="5.427"/>
	<polygon style="fill:#34495E;" points="311.818,154.196 313.042,155.369 316.764,151.411 315.533,150.244 	"/>
	<polygon style="fill:#34495E;" points="294.979,142.216 296.453,143.045 299.064,138.291 297.59,137.469 	"/>
	<polygon style="fill:#34495E;" points="275.681,134.815 277.315,135.242 278.676,129.974 277.028,129.554 	"/>
</g>
<path style="fill:#03628A;" d="M255.992,305.687c-50.076,0-90.801-40.747-90.801-90.811c0-50.081,40.727-90.816,90.801-90.816
	s90.821,40.735,90.821,90.816C346.813,264.94,306.068,305.687,255.992,305.687z M255.992,127.841
	c-11.743,0-23.135,2.309-33.861,6.848c-10.355,4.383-19.661,10.647-27.668,18.647c-7.992,7.992-14.262,17.298-18.644,27.671
	c-4.534,10.732-6.843,22.124-6.843,33.871c0,11.735,2.312,23.135,6.843,33.866c4.383,10.353,10.652,19.668,18.644,27.668
	c8,7.99,17.298,14.262,27.668,18.637c10.721,4.544,22.113,6.848,33.861,6.848c11.768,0,23.16-2.301,33.871-6.848
	c10.373-4.375,19.681-10.647,27.666-18.637c8-8,14.277-17.316,18.652-27.668c4.536-10.732,6.84-22.136,6.84-33.866
	c0-11.743-2.301-23.135-6.84-33.871c-4.375-10.365-10.652-19.679-18.652-27.663c-8-7.992-17.298-14.272-27.666-18.655
	C279.14,130.15,267.758,127.841,255.992,127.841z"/>
<polygon style="fill:#0684BA;" points="247.913,206.794 255.992,214.879 303.124,167.739 303.14,167.718 "/>
<polygon style="fill:#03628A;" points="264.09,222.94 256.008,214.856 303.14,167.718 303.16,167.711 "/>
<polygon style="fill:#FF9D4D;" points="247.928,206.794 256.008,214.863 208.878,261.998 208.86,262.006 "/>
<polygon style="fill:#F28124;" points="264.077,222.961 255.987,214.879 208.86,262.006 208.847,262.026 "/>
<g>
</g>
<g>
</g>
<g>
</g>
<g>
</g>
<g>
</g>
<g>
</g>
<g>
</g>
<g>
</g>
<g>
</g>
<g>
</g>
<g>
</g>
<g>
</g>
<g>
</g>
<g>
</g>
<g>
</g>
</svg>
